<svg xmlns="http://www.w3.org/2000/svg" width="1600" height="620" viewBox="0 0 1600 620">
  <rect width="1600" height="620" fill="#f4e9e3"/>

  <!-- the mark: see logo.svg -->
  <g transform="translate(96, 88) scale(0.868)">
    <circle cx="256" cy="256" r="256" fill="#4c7a36"/>

    <g transform="rotate(-18 150 178)">
      <rect x="118" y="140" width="64" height="80" rx="10" fill="#c15f42"/>
      <rect x="131" y="160" width="38" height="9" rx="4.5" fill="#faf7f2"/>
      <rect x="131" y="178" width="38" height="9" rx="4.5" fill="#faf7f2"/>
      <rect x="131" y="196" width="24" height="9" rx="4.5" fill="#faf7f2"/>
    </g>
    <g transform="rotate(10 256 128)">
      <rect x="224" y="88" width="64" height="80" rx="10" fill="#faf7f2"/>
      <rect x="237" y="108" width="38" height="9" rx="4.5" fill="#4c7a36"/>
      <rect x="237" y="126" width="38" height="9" rx="4.5" fill="#4c7a36"/>
      <rect x="237" y="144" width="24" height="9" rx="4.5" fill="#4c7a36"/>
    </g>
    <g transform="rotate(22 362 178)">
      <rect x="330" y="140" width="64" height="80" rx="10" fill="#c15f42"/>
      <rect x="343" y="160" width="38" height="9" rx="4.5" fill="#faf7f2"/>
      <rect x="343" y="178" width="38" height="9" rx="4.5" fill="#faf7f2"/>
      <rect x="343" y="196" width="24" height="9" rx="4.5" fill="#faf7f2"/>
    </g>

    <g fill="#faf7f2">
      <rect x="170" y="344" width="28" height="66" rx="14" transform="rotate(-20 184 377)"/>
      <rect x="314" y="344" width="28" height="66" rx="14" transform="rotate(20 328 377)"/>
    </g>

    <path d="M 132 268 a 124 108 0 0 0 248 0 Z" fill="#faf7f2"/>
    <rect x="120" y="246" width="272" height="34" rx="17" fill="#faf7f2"/>
  </g>

  <text x="620" y="330" font-family="Futura, Avenir Next, Helvetica Neue, Helvetica, sans-serif"
        font-size="170" font-weight="bold" fill="#c15f42">comhad</text>
  <text x="626" y="426" font-family="CaskaydiaCove Nerd Font, Menlo, DejaVu Sans Mono, monospace"
        font-size="38" fill="#a8543c">A ranger-style terminal browser for S3</text>
</svg>
